<svg width="280" height="280" viewBox="0 0 280 280" fill="none" xmlns="http://www.w3.org/2000/svg">
<circle cx="140" cy="140" r="140" fill="white" fill-opacity="0.2"/>
<circle cx="140" cy="140" r="115" fill="white" fill-opacity="0.2"/>
<circle cx="140" cy="140" r="85" fill="white" fill-opacity="0.2"/>
<circle cx="140" cy="140" r="60" fill="white" fill-opacity="0.2"/>
<circle cx="140" cy="140" r="48.5" fill="white" stroke="#6C95FF" stroke-width="3"/>
<path d="M174.488 159.391C185.003 135.001 180.937 122.909 158.285 106.427C157.938 106.175 157.46 106.168 157.111 106.417L148.511 112.564C148.342 112.685 148.138 112.75 147.93 112.75H137.445C136.892 112.75 136.445 113.198 136.445 113.75V121.119C136.445 121.504 136.223 121.856 135.875 122.022L128.311 125.625C127.679 125.927 127.544 126.769 128.051 127.252L133.87 132.797C134.009 132.929 134.184 133.019 134.373 133.055L156.883 137.345C157.354 137.435 157.695 137.843 157.695 138.323V159.006C157.695 159.558 158.143 160 158.695 160H164.779H173.569C173.967 160 174.331 159.756 174.488 159.391Z" fill="#567EF2" stroke="#567EF2"/>
<path d="M138.466 171.927L129.664 167.295C129.335 167.122 129.13 166.781 129.13 166.41V160.521V154.657C129.13 154.272 128.909 153.922 128.562 153.755L112.656 146.121C112.491 146.042 112.351 145.919 112.251 145.766L102.951 131.498C102.427 130.695 101.192 131.019 101.145 131.977C99.7082 161.423 108.717 175.52 137.851 179.836C138.451 179.925 139 179.46 139 178.854L139 172.812C139 172.441 138.794 172.1 138.466 171.927Z" fill="#567EF2" stroke="#567EF2"/>
</svg>
